<mxfile host="app.diagrams.net" agent="Mozilla/5.0 (Windows NT 10.0; Win64; x64) AppleWebKit/537.36 (KHTML, like Gecko) Chrome/127.0.0.0 Safari/537.36" version="24.7.17">
  <diagram name="PÃ¡gina-1" id="BuunUkKAbR3y5gIgEdou">
    <mxGraphModel dx="3031" dy="1440" grid="1" gridSize="10" guides="1" tooltips="1" connect="1" arrows="1" fold="1" page="1" pageScale="1" pageWidth="827" pageHeight="1169" math="0" shadow="0">
      <root>
        <mxCell id="0" />
        <mxCell id="1" parent="0" />
        <mxCell id="6GXmeNR0ogsYIepqKpP2-110" value="" style="rounded=0;whiteSpace=wrap;html=1;" vertex="1" parent="1">
          <mxGeometry x="-2350" y="-500" width="2800" height="1420" as="geometry" />
        </mxCell>
        <mxCell id="6GXmeNR0ogsYIepqKpP2-26" style="edgeStyle=none;rounded=0;orthogonalLoop=1;jettySize=auto;html=1;entryX=0.5;entryY=0;entryDx=0;entryDy=0;" edge="1" parent="1" source="6GXmeNR0ogsYIepqKpP2-1" target="6GXmeNR0ogsYIepqKpP2-17">
          <mxGeometry relative="1" as="geometry" />
        </mxCell>
        <mxCell id="6GXmeNR0ogsYIepqKpP2-58" style="edgeStyle=none;rounded=0;orthogonalLoop=1;jettySize=auto;html=1;entryX=0;entryY=0.5;entryDx=0;entryDy=0;" edge="1" parent="1" source="6GXmeNR0ogsYIepqKpP2-1" target="6GXmeNR0ogsYIepqKpP2-28">
          <mxGeometry relative="1" as="geometry" />
        </mxCell>
        <mxCell id="6GXmeNR0ogsYIepqKpP2-1" value="Artista" style="swimlane;fontStyle=1;align=center;verticalAlign=top;childLayout=stackLayout;horizontal=1;startSize=26;horizontalStack=0;resizeParent=1;resizeParentMax=0;resizeLast=0;collapsible=1;marginBottom=0;whiteSpace=wrap;html=1;fillColor=#1ba1e2;fontColor=#ffffff;strokeColor=#006EAF;" vertex="1" parent="1">
          <mxGeometry x="-270" y="160" width="170" height="174" as="geometry" />
        </mxCell>
        <mxCell id="6GXmeNR0ogsYIepqKpP2-2" value="ID (String[7])&lt;div&gt;Categoria (int)&lt;br&gt;&lt;div&gt;&lt;div&gt;Nombre (String[25])&lt;/div&gt;&lt;div&gt;Integrantes (int)&lt;/div&gt;&lt;div&gt;GeneroMusical (String[25])&lt;/div&gt;&lt;div&gt;Discos (treeSet&amp;lt;Disco&amp;gt;)&lt;/div&gt;&lt;div&gt;Recitales (treeSet&amp;lt;Recital&amp;gt;)&lt;/div&gt;&lt;/div&gt;&lt;/div&gt;" style="text;strokeColor=none;fillColor=none;align=left;verticalAlign=top;spacingLeft=4;spacingRight=4;overflow=hidden;rotatable=0;points=[[0,0.5],[1,0.5]];portConstraint=eastwest;whiteSpace=wrap;html=1;" vertex="1" parent="6GXmeNR0ogsYIepqKpP2-1">
          <mxGeometry y="26" width="170" height="114" as="geometry" />
        </mxCell>
        <mxCell id="6GXmeNR0ogsYIepqKpP2-3" value="" style="line;strokeWidth=1;fillColor=none;align=left;verticalAlign=middle;spacingTop=-1;spacingLeft=3;spacingRight=3;rotatable=0;labelPosition=right;points=[];portConstraint=eastwest;strokeColor=inherit;" vertex="1" parent="6GXmeNR0ogsYIepqKpP2-1">
          <mxGeometry y="140" width="170" height="8" as="geometry" />
        </mxCell>
        <mxCell id="6GXmeNR0ogsYIepqKpP2-4" value="+ method(type): type" style="text;strokeColor=none;fillColor=none;align=left;verticalAlign=top;spacingLeft=4;spacingRight=4;overflow=hidden;rotatable=0;points=[[0,0.5],[1,0.5]];portConstraint=eastwest;whiteSpace=wrap;html=1;" vertex="1" parent="6GXmeNR0ogsYIepqKpP2-1">
          <mxGeometry y="148" width="170" height="26" as="geometry" />
        </mxCell>
        <mxCell id="6GXmeNR0ogsYIepqKpP2-25" style="edgeStyle=none;rounded=0;orthogonalLoop=1;jettySize=auto;html=1;entryX=0.5;entryY=0;entryDx=0;entryDy=0;" edge="1" parent="1" source="6GXmeNR0ogsYIepqKpP2-17" target="6GXmeNR0ogsYIepqKpP2-21">
          <mxGeometry relative="1" as="geometry" />
        </mxCell>
        <mxCell id="6GXmeNR0ogsYIepqKpP2-51" style="edgeStyle=none;rounded=0;orthogonalLoop=1;jettySize=auto;html=1;entryX=0.5;entryY=0;entryDx=0;entryDy=0;" edge="1" parent="1" source="6GXmeNR0ogsYIepqKpP2-17" target="6GXmeNR0ogsYIepqKpP2-41">
          <mxGeometry relative="1" as="geometry" />
        </mxCell>
        <mxCell id="6GXmeNR0ogsYIepqKpP2-17" value="Disco" style="swimlane;fontStyle=1;align=center;verticalAlign=top;childLayout=stackLayout;horizontal=1;startSize=26;horizontalStack=0;resizeParent=1;resizeParentMax=0;resizeLast=0;collapsible=1;marginBottom=0;whiteSpace=wrap;html=1;fillColor=#f0a30a;fontColor=#000000;strokeColor=#BD7000;" vertex="1" parent="1">
          <mxGeometry x="-440" y="380" width="160" height="124" as="geometry" />
        </mxCell>
        <mxCell id="6GXmeNR0ogsYIepqKpP2-18" value="UnidadesVendidas (int)&lt;div&gt;Canciones (treeSet(Cancion))&lt;/div&gt;" style="text;strokeColor=none;fillColor=none;align=left;verticalAlign=top;spacingLeft=4;spacingRight=4;overflow=hidden;rotatable=0;points=[[0,0.5],[1,0.5]];portConstraint=eastwest;whiteSpace=wrap;html=1;" vertex="1" parent="6GXmeNR0ogsYIepqKpP2-17">
          <mxGeometry y="26" width="160" height="64" as="geometry" />
        </mxCell>
        <mxCell id="6GXmeNR0ogsYIepqKpP2-19" value="" style="line;strokeWidth=1;fillColor=none;align=left;verticalAlign=middle;spacingTop=-1;spacingLeft=3;spacingRight=3;rotatable=0;labelPosition=right;points=[];portConstraint=eastwest;strokeColor=inherit;" vertex="1" parent="6GXmeNR0ogsYIepqKpP2-17">
          <mxGeometry y="90" width="160" height="8" as="geometry" />
        </mxCell>
        <mxCell id="6GXmeNR0ogsYIepqKpP2-20" value="+ method(type): type" style="text;strokeColor=none;fillColor=none;align=left;verticalAlign=top;spacingLeft=4;spacingRight=4;overflow=hidden;rotatable=0;points=[[0,0.5],[1,0.5]];portConstraint=eastwest;whiteSpace=wrap;html=1;" vertex="1" parent="6GXmeNR0ogsYIepqKpP2-17">
          <mxGeometry y="98" width="160" height="26" as="geometry" />
        </mxCell>
        <mxCell id="6GXmeNR0ogsYIepqKpP2-21" value="Cancion" style="swimlane;fontStyle=1;align=center;verticalAlign=top;childLayout=stackLayout;horizontal=1;startSize=26;horizontalStack=0;resizeParent=1;resizeParentMax=0;resizeLast=0;collapsible=1;marginBottom=0;whiteSpace=wrap;html=1;fillColor=#a0522d;fontColor=#ffffff;strokeColor=#6D1F00;" vertex="1" parent="1">
          <mxGeometry x="-520" y="580" width="160" height="164" as="geometry" />
        </mxCell>
        <mxCell id="6GXmeNR0ogsYIepqKpP2-22" value="Nombre (String[30])&lt;div&gt;Categoria (Int)&lt;/div&gt;&lt;div&gt;Reproducciones (Int)&lt;/div&gt;&lt;div&gt;Minutos (Int)&lt;/div&gt;&lt;div&gt;Segundos (Int)&lt;/div&gt;" style="text;strokeColor=none;fillColor=none;align=left;verticalAlign=top;spacingLeft=4;spacingRight=4;overflow=hidden;rotatable=0;points=[[0,0.5],[1,0.5]];portConstraint=eastwest;whiteSpace=wrap;html=1;" vertex="1" parent="6GXmeNR0ogsYIepqKpP2-21">
          <mxGeometry y="26" width="160" height="104" as="geometry" />
        </mxCell>
        <mxCell id="6GXmeNR0ogsYIepqKpP2-23" value="" style="line;strokeWidth=1;fillColor=none;align=left;verticalAlign=middle;spacingTop=-1;spacingLeft=3;spacingRight=3;rotatable=0;labelPosition=right;points=[];portConstraint=eastwest;strokeColor=inherit;" vertex="1" parent="6GXmeNR0ogsYIepqKpP2-21">
          <mxGeometry y="130" width="160" height="8" as="geometry" />
        </mxCell>
        <mxCell id="6GXmeNR0ogsYIepqKpP2-24" value="+ method(type): type" style="text;strokeColor=none;fillColor=none;align=left;verticalAlign=top;spacingLeft=4;spacingRight=4;overflow=hidden;rotatable=0;points=[[0,0.5],[1,0.5]];portConstraint=eastwest;whiteSpace=wrap;html=1;" vertex="1" parent="6GXmeNR0ogsYIepqKpP2-21">
          <mxGeometry y="138" width="160" height="26" as="geometry" />
        </mxCell>
        <mxCell id="6GXmeNR0ogsYIepqKpP2-27" value="Recital" style="swimlane;fontStyle=1;align=center;verticalAlign=top;childLayout=stackLayout;horizontal=1;startSize=26;horizontalStack=0;resizeParent=1;resizeParentMax=0;resizeLast=0;collapsible=1;marginBottom=0;whiteSpace=wrap;html=1;fillColor=#008a00;fontColor=#ffffff;strokeColor=#005700;" vertex="1" parent="1">
          <mxGeometry x="-20" y="340" width="170" height="124" as="geometry" />
        </mxCell>
        <mxCell id="6GXmeNR0ogsYIepqKpP2-28" value="&lt;div&gt;Fecha (DateTime)&lt;/div&gt;&lt;div&gt;Recaudacion (Float)&lt;br&gt;&lt;div&gt;&lt;div&gt;Costo (Float)&lt;/div&gt;&lt;/div&gt;&lt;/div&gt;" style="text;strokeColor=none;fillColor=none;align=left;verticalAlign=top;spacingLeft=4;spacingRight=4;overflow=hidden;rotatable=0;points=[[0,0.5],[1,0.5]];portConstraint=eastwest;whiteSpace=wrap;html=1;" vertex="1" parent="6GXmeNR0ogsYIepqKpP2-27">
          <mxGeometry y="26" width="170" height="64" as="geometry" />
        </mxCell>
        <mxCell id="6GXmeNR0ogsYIepqKpP2-29" value="" style="line;strokeWidth=1;fillColor=none;align=left;verticalAlign=middle;spacingTop=-1;spacingLeft=3;spacingRight=3;rotatable=0;labelPosition=right;points=[];portConstraint=eastwest;strokeColor=inherit;" vertex="1" parent="6GXmeNR0ogsYIepqKpP2-27">
          <mxGeometry y="90" width="170" height="8" as="geometry" />
        </mxCell>
        <mxCell id="6GXmeNR0ogsYIepqKpP2-30" value="+ method(type): type" style="text;strokeColor=none;fillColor=none;align=left;verticalAlign=top;spacingLeft=4;spacingRight=4;overflow=hidden;rotatable=0;points=[[0,0.5],[1,0.5]];portConstraint=eastwest;whiteSpace=wrap;html=1;" vertex="1" parent="6GXmeNR0ogsYIepqKpP2-27">
          <mxGeometry y="98" width="170" height="26" as="geometry" />
        </mxCell>
        <mxCell id="6GXmeNR0ogsYIepqKpP2-49" style="edgeStyle=none;rounded=0;orthogonalLoop=1;jettySize=auto;html=1;entryX=0.5;entryY=0;entryDx=0;entryDy=0;" edge="1" parent="1" source="6GXmeNR0ogsYIepqKpP2-32" target="6GXmeNR0ogsYIepqKpP2-37">
          <mxGeometry relative="1" as="geometry" />
        </mxCell>
        <mxCell id="6GXmeNR0ogsYIepqKpP2-50" style="edgeStyle=none;rounded=0;orthogonalLoop=1;jettySize=auto;html=1;entryX=0.5;entryY=0;entryDx=0;entryDy=0;" edge="1" parent="1" source="6GXmeNR0ogsYIepqKpP2-32" target="6GXmeNR0ogsYIepqKpP2-45">
          <mxGeometry relative="1" as="geometry" />
        </mxCell>
        <mxCell id="6GXmeNR0ogsYIepqKpP2-32" value="Disco" style="swimlane;fontStyle=1;align=center;verticalAlign=top;childLayout=stackLayout;horizontal=1;startSize=26;horizontalStack=0;resizeParent=1;resizeParentMax=0;resizeLast=0;collapsible=1;marginBottom=0;whiteSpace=wrap;html=1;fillColor=#f0a30a;fontColor=#000000;strokeColor=#BD7000;" vertex="1" parent="1">
          <mxGeometry x="-670" y="380" width="160" height="124" as="geometry" />
        </mxCell>
        <mxCell id="6GXmeNR0ogsYIepqKpP2-33" value="UnidadesVendidas (int)&lt;div&gt;Canciones (treeSet(Cancion))&lt;/div&gt;" style="text;strokeColor=none;fillColor=none;align=left;verticalAlign=top;spacingLeft=4;spacingRight=4;overflow=hidden;rotatable=0;points=[[0,0.5],[1,0.5]];portConstraint=eastwest;whiteSpace=wrap;html=1;" vertex="1" parent="6GXmeNR0ogsYIepqKpP2-32">
          <mxGeometry y="26" width="160" height="64" as="geometry" />
        </mxCell>
        <mxCell id="6GXmeNR0ogsYIepqKpP2-34" value="" style="line;strokeWidth=1;fillColor=none;align=left;verticalAlign=middle;spacingTop=-1;spacingLeft=3;spacingRight=3;rotatable=0;labelPosition=right;points=[];portConstraint=eastwest;strokeColor=inherit;" vertex="1" parent="6GXmeNR0ogsYIepqKpP2-32">
          <mxGeometry y="90" width="160" height="8" as="geometry" />
        </mxCell>
        <mxCell id="6GXmeNR0ogsYIepqKpP2-35" value="+ method(type): type" style="text;strokeColor=none;fillColor=none;align=left;verticalAlign=top;spacingLeft=4;spacingRight=4;overflow=hidden;rotatable=0;points=[[0,0.5],[1,0.5]];portConstraint=eastwest;whiteSpace=wrap;html=1;" vertex="1" parent="6GXmeNR0ogsYIepqKpP2-32">
          <mxGeometry y="98" width="160" height="26" as="geometry" />
        </mxCell>
        <mxCell id="6GXmeNR0ogsYIepqKpP2-36" style="edgeStyle=none;rounded=0;orthogonalLoop=1;jettySize=auto;html=1;entryX=0.5;entryY=0;entryDx=0;entryDy=0;" edge="1" parent="1" source="6GXmeNR0ogsYIepqKpP2-2" target="6GXmeNR0ogsYIepqKpP2-32">
          <mxGeometry relative="1" as="geometry" />
        </mxCell>
        <mxCell id="6GXmeNR0ogsYIepqKpP2-37" value="Cancion" style="swimlane;fontStyle=1;align=center;verticalAlign=top;childLayout=stackLayout;horizontal=1;startSize=26;horizontalStack=0;resizeParent=1;resizeParentMax=0;resizeLast=0;collapsible=1;marginBottom=0;whiteSpace=wrap;html=1;fillColor=#a0522d;fontColor=#ffffff;strokeColor=#6D1F00;" vertex="1" parent="1">
          <mxGeometry x="-950" y="580" width="160" height="164" as="geometry" />
        </mxCell>
        <mxCell id="6GXmeNR0ogsYIepqKpP2-38" value="Nombre (String[30])&lt;div&gt;Categoria (Int)&lt;/div&gt;&lt;div&gt;Reproducciones (Int)&lt;/div&gt;&lt;div&gt;Minutos (Int)&lt;/div&gt;&lt;div&gt;Segundos (Int)&lt;/div&gt;" style="text;strokeColor=none;fillColor=none;align=left;verticalAlign=top;spacingLeft=4;spacingRight=4;overflow=hidden;rotatable=0;points=[[0,0.5],[1,0.5]];portConstraint=eastwest;whiteSpace=wrap;html=1;" vertex="1" parent="6GXmeNR0ogsYIepqKpP2-37">
          <mxGeometry y="26" width="160" height="104" as="geometry" />
        </mxCell>
        <mxCell id="6GXmeNR0ogsYIepqKpP2-39" value="" style="line;strokeWidth=1;fillColor=none;align=left;verticalAlign=middle;spacingTop=-1;spacingLeft=3;spacingRight=3;rotatable=0;labelPosition=right;points=[];portConstraint=eastwest;strokeColor=inherit;" vertex="1" parent="6GXmeNR0ogsYIepqKpP2-37">
          <mxGeometry y="130" width="160" height="8" as="geometry" />
        </mxCell>
        <mxCell id="6GXmeNR0ogsYIepqKpP2-40" value="+ method(type): type" style="text;strokeColor=none;fillColor=none;align=left;verticalAlign=top;spacingLeft=4;spacingRight=4;overflow=hidden;rotatable=0;points=[[0,0.5],[1,0.5]];portConstraint=eastwest;whiteSpace=wrap;html=1;" vertex="1" parent="6GXmeNR0ogsYIepqKpP2-37">
          <mxGeometry y="138" width="160" height="26" as="geometry" />
        </mxCell>
        <mxCell id="6GXmeNR0ogsYIepqKpP2-41" value="Cancion" style="swimlane;fontStyle=1;align=center;verticalAlign=top;childLayout=stackLayout;horizontal=1;startSize=26;horizontalStack=0;resizeParent=1;resizeParentMax=0;resizeLast=0;collapsible=1;marginBottom=0;whiteSpace=wrap;html=1;fillColor=#fff2cc;strokeColor=#d6b656;gradientColor=#ffd966;" vertex="1" parent="1">
          <mxGeometry x="-310" y="580" width="160" height="164" as="geometry" />
        </mxCell>
        <mxCell id="6GXmeNR0ogsYIepqKpP2-42" value="Nombre (String[30])&lt;div&gt;Categoria (Int)&lt;/div&gt;&lt;div&gt;Reproducciones (Int)&lt;/div&gt;&lt;div&gt;Minutos (Int)&lt;/div&gt;&lt;div&gt;Segundos (Int)&lt;/div&gt;" style="text;strokeColor=none;fillColor=none;align=left;verticalAlign=top;spacingLeft=4;spacingRight=4;overflow=hidden;rotatable=0;points=[[0,0.5],[1,0.5]];portConstraint=eastwest;whiteSpace=wrap;html=1;" vertex="1" parent="6GXmeNR0ogsYIepqKpP2-41">
          <mxGeometry y="26" width="160" height="104" as="geometry" />
        </mxCell>
        <mxCell id="6GXmeNR0ogsYIepqKpP2-43" value="" style="line;strokeWidth=1;fillColor=none;align=left;verticalAlign=middle;spacingTop=-1;spacingLeft=3;spacingRight=3;rotatable=0;labelPosition=right;points=[];portConstraint=eastwest;strokeColor=inherit;" vertex="1" parent="6GXmeNR0ogsYIepqKpP2-41">
          <mxGeometry y="130" width="160" height="8" as="geometry" />
        </mxCell>
        <mxCell id="6GXmeNR0ogsYIepqKpP2-44" value="+ method(type): type" style="text;strokeColor=none;fillColor=none;align=left;verticalAlign=top;spacingLeft=4;spacingRight=4;overflow=hidden;rotatable=0;points=[[0,0.5],[1,0.5]];portConstraint=eastwest;whiteSpace=wrap;html=1;" vertex="1" parent="6GXmeNR0ogsYIepqKpP2-41">
          <mxGeometry y="138" width="160" height="26" as="geometry" />
        </mxCell>
        <mxCell id="6GXmeNR0ogsYIepqKpP2-45" value="Cancion" style="swimlane;fontStyle=1;align=center;verticalAlign=top;childLayout=stackLayout;horizontal=1;startSize=26;horizontalStack=0;resizeParent=1;resizeParentMax=0;resizeLast=0;collapsible=1;marginBottom=0;whiteSpace=wrap;html=1;fillColor=#a0522d;fontColor=#ffffff;strokeColor=#6D1F00;" vertex="1" parent="1">
          <mxGeometry x="-750" y="580" width="160" height="164" as="geometry" />
        </mxCell>
        <mxCell id="6GXmeNR0ogsYIepqKpP2-46" value="Nombre (String[30])&lt;div&gt;Categoria (Int)&lt;/div&gt;&lt;div&gt;Reproducciones (Int)&lt;/div&gt;&lt;div&gt;Minutos (Int)&lt;/div&gt;&lt;div&gt;Segundos (Int)&lt;/div&gt;" style="text;strokeColor=none;fillColor=none;align=left;verticalAlign=top;spacingLeft=4;spacingRight=4;overflow=hidden;rotatable=0;points=[[0,0.5],[1,0.5]];portConstraint=eastwest;whiteSpace=wrap;html=1;" vertex="1" parent="6GXmeNR0ogsYIepqKpP2-45">
          <mxGeometry y="26" width="160" height="104" as="geometry" />
        </mxCell>
        <mxCell id="6GXmeNR0ogsYIepqKpP2-47" value="" style="line;strokeWidth=1;fillColor=none;align=left;verticalAlign=middle;spacingTop=-1;spacingLeft=3;spacingRight=3;rotatable=0;labelPosition=right;points=[];portConstraint=eastwest;strokeColor=inherit;" vertex="1" parent="6GXmeNR0ogsYIepqKpP2-45">
          <mxGeometry y="130" width="160" height="8" as="geometry" />
        </mxCell>
        <mxCell id="6GXmeNR0ogsYIepqKpP2-48" value="+ method(type): type" style="text;strokeColor=none;fillColor=none;align=left;verticalAlign=top;spacingLeft=4;spacingRight=4;overflow=hidden;rotatable=0;points=[[0,0.5],[1,0.5]];portConstraint=eastwest;whiteSpace=wrap;html=1;" vertex="1" parent="6GXmeNR0ogsYIepqKpP2-45">
          <mxGeometry y="138" width="160" height="26" as="geometry" />
        </mxCell>
        <mxCell id="6GXmeNR0ogsYIepqKpP2-52" value="Recital" style="swimlane;fontStyle=1;align=center;verticalAlign=top;childLayout=stackLayout;horizontal=1;startSize=26;horizontalStack=0;resizeParent=1;resizeParentMax=0;resizeLast=0;collapsible=1;marginBottom=0;whiteSpace=wrap;html=1;fillColor=#008a00;fontColor=#ffffff;strokeColor=#005700;" vertex="1" parent="1">
          <mxGeometry x="-20" y="170" width="170" height="124" as="geometry" />
        </mxCell>
        <mxCell id="6GXmeNR0ogsYIepqKpP2-53" value="&lt;div&gt;Fecha (DateTime)&lt;/div&gt;&lt;div&gt;Recaudacion (Float)&lt;br&gt;&lt;div&gt;&lt;div&gt;Costo (Float)&lt;/div&gt;&lt;/div&gt;&lt;/div&gt;" style="text;strokeColor=none;fillColor=none;align=left;verticalAlign=top;spacingLeft=4;spacingRight=4;overflow=hidden;rotatable=0;points=[[0,0.5],[1,0.5]];portConstraint=eastwest;whiteSpace=wrap;html=1;" vertex="1" parent="6GXmeNR0ogsYIepqKpP2-52">
          <mxGeometry y="26" width="170" height="64" as="geometry" />
        </mxCell>
        <mxCell id="6GXmeNR0ogsYIepqKpP2-54" value="" style="line;strokeWidth=1;fillColor=none;align=left;verticalAlign=middle;spacingTop=-1;spacingLeft=3;spacingRight=3;rotatable=0;labelPosition=right;points=[];portConstraint=eastwest;strokeColor=inherit;" vertex="1" parent="6GXmeNR0ogsYIepqKpP2-52">
          <mxGeometry y="90" width="170" height="8" as="geometry" />
        </mxCell>
        <mxCell id="6GXmeNR0ogsYIepqKpP2-55" value="+ method(type): type" style="text;strokeColor=none;fillColor=none;align=left;verticalAlign=top;spacingLeft=4;spacingRight=4;overflow=hidden;rotatable=0;points=[[0,0.5],[1,0.5]];portConstraint=eastwest;whiteSpace=wrap;html=1;" vertex="1" parent="6GXmeNR0ogsYIepqKpP2-52">
          <mxGeometry y="98" width="170" height="26" as="geometry" />
        </mxCell>
        <mxCell id="6GXmeNR0ogsYIepqKpP2-57" style="edgeStyle=none;rounded=0;orthogonalLoop=1;jettySize=auto;html=1;entryX=0;entryY=0.5;entryDx=0;entryDy=0;" edge="1" parent="1" source="6GXmeNR0ogsYIepqKpP2-2" target="6GXmeNR0ogsYIepqKpP2-53">
          <mxGeometry relative="1" as="geometry" />
        </mxCell>
        <mxCell id="6GXmeNR0ogsYIepqKpP2-63" style="edgeStyle=none;rounded=0;orthogonalLoop=1;jettySize=auto;html=1;entryX=0.5;entryY=0;entryDx=0;entryDy=0;" edge="1" parent="1" source="6GXmeNR0ogsYIepqKpP2-59" target="6GXmeNR0ogsYIepqKpP2-1">
          <mxGeometry relative="1" as="geometry" />
        </mxCell>
        <mxCell id="6GXmeNR0ogsYIepqKpP2-108" style="edgeStyle=none;rounded=0;orthogonalLoop=1;jettySize=auto;html=1;entryX=0.5;entryY=0;entryDx=0;entryDy=0;" edge="1" parent="1" source="6GXmeNR0ogsYIepqKpP2-59" target="6GXmeNR0ogsYIepqKpP2-66">
          <mxGeometry relative="1" as="geometry" />
        </mxCell>
        <mxCell id="6GXmeNR0ogsYIepqKpP2-59" value="Agencia" style="swimlane;fontStyle=1;align=center;verticalAlign=top;childLayout=stackLayout;horizontal=1;startSize=26;horizontalStack=0;resizeParent=1;resizeParentMax=0;resizeLast=0;collapsible=1;marginBottom=0;whiteSpace=wrap;html=1;fillColor=#e51400;strokeColor=#B20000;fontColor=#ffffff;" vertex="1" parent="1">
          <mxGeometry x="-960" y="-430" width="170" height="174" as="geometry" />
        </mxCell>
        <mxCell id="6GXmeNR0ogsYIepqKpP2-60" value="Nombre (String[30])&lt;div&gt;Artistas (TreeSet)&lt;/div&gt;" style="text;strokeColor=none;fillColor=none;align=left;verticalAlign=top;spacingLeft=4;spacingRight=4;overflow=hidden;rotatable=0;points=[[0,0.5],[1,0.5]];portConstraint=eastwest;whiteSpace=wrap;html=1;" vertex="1" parent="6GXmeNR0ogsYIepqKpP2-59">
          <mxGeometry y="26" width="170" height="114" as="geometry" />
        </mxCell>
        <mxCell id="6GXmeNR0ogsYIepqKpP2-61" value="" style="line;strokeWidth=1;fillColor=none;align=left;verticalAlign=middle;spacingTop=-1;spacingLeft=3;spacingRight=3;rotatable=0;labelPosition=right;points=[];portConstraint=eastwest;strokeColor=inherit;" vertex="1" parent="6GXmeNR0ogsYIepqKpP2-59">
          <mxGeometry y="140" width="170" height="8" as="geometry" />
        </mxCell>
        <mxCell id="6GXmeNR0ogsYIepqKpP2-62" value="+ method(type): type" style="text;strokeColor=none;fillColor=none;align=left;verticalAlign=top;spacingLeft=4;spacingRight=4;overflow=hidden;rotatable=0;points=[[0,0.5],[1,0.5]];portConstraint=eastwest;whiteSpace=wrap;html=1;" vertex="1" parent="6GXmeNR0ogsYIepqKpP2-59">
          <mxGeometry y="148" width="170" height="26" as="geometry" />
        </mxCell>
        <mxCell id="6GXmeNR0ogsYIepqKpP2-64" style="edgeStyle=none;rounded=0;orthogonalLoop=1;jettySize=auto;html=1;entryX=0.5;entryY=0;entryDx=0;entryDy=0;" edge="1" source="6GXmeNR0ogsYIepqKpP2-66" target="6GXmeNR0ogsYIepqKpP2-72" parent="1">
          <mxGeometry relative="1" as="geometry" />
        </mxCell>
        <mxCell id="6GXmeNR0ogsYIepqKpP2-65" style="edgeStyle=none;rounded=0;orthogonalLoop=1;jettySize=auto;html=1;entryX=0;entryY=0.5;entryDx=0;entryDy=0;" edge="1" source="6GXmeNR0ogsYIepqKpP2-66" target="6GXmeNR0ogsYIepqKpP2-81" parent="1">
          <mxGeometry relative="1" as="geometry" />
        </mxCell>
        <mxCell id="6GXmeNR0ogsYIepqKpP2-66" value="Artista" style="swimlane;fontStyle=1;align=center;verticalAlign=top;childLayout=stackLayout;horizontal=1;startSize=26;horizontalStack=0;resizeParent=1;resizeParentMax=0;resizeLast=0;collapsible=1;marginBottom=0;whiteSpace=wrap;html=1;fillColor=#0050ef;fontColor=#ffffff;strokeColor=#001DBC;" vertex="1" parent="1">
          <mxGeometry x="-1500" y="220" width="170" height="174" as="geometry" />
        </mxCell>
        <mxCell id="6GXmeNR0ogsYIepqKpP2-67" value="ID (String[7])&lt;div&gt;Categoria (int)&lt;br&gt;&lt;div&gt;&lt;div&gt;Nombre (String[25])&lt;/div&gt;&lt;div&gt;Integrantes (int)&lt;/div&gt;&lt;div&gt;GeneroMusical (String[25])&lt;/div&gt;&lt;div&gt;Discos (treeSet&amp;lt;Disco&amp;gt;)&lt;/div&gt;&lt;div&gt;Recitales (treeSet&amp;lt;Recital&amp;gt;)&lt;/div&gt;&lt;/div&gt;&lt;/div&gt;" style="text;strokeColor=none;fillColor=none;align=left;verticalAlign=top;spacingLeft=4;spacingRight=4;overflow=hidden;rotatable=0;points=[[0,0.5],[1,0.5]];portConstraint=eastwest;whiteSpace=wrap;html=1;" vertex="1" parent="6GXmeNR0ogsYIepqKpP2-66">
          <mxGeometry y="26" width="170" height="114" as="geometry" />
        </mxCell>
        <mxCell id="6GXmeNR0ogsYIepqKpP2-68" value="" style="line;strokeWidth=1;fillColor=none;align=left;verticalAlign=middle;spacingTop=-1;spacingLeft=3;spacingRight=3;rotatable=0;labelPosition=right;points=[];portConstraint=eastwest;strokeColor=inherit;" vertex="1" parent="6GXmeNR0ogsYIepqKpP2-66">
          <mxGeometry y="140" width="170" height="8" as="geometry" />
        </mxCell>
        <mxCell id="6GXmeNR0ogsYIepqKpP2-69" value="+ method(type): type" style="text;strokeColor=none;fillColor=none;align=left;verticalAlign=top;spacingLeft=4;spacingRight=4;overflow=hidden;rotatable=0;points=[[0,0.5],[1,0.5]];portConstraint=eastwest;whiteSpace=wrap;html=1;" vertex="1" parent="6GXmeNR0ogsYIepqKpP2-66">
          <mxGeometry y="148" width="170" height="26" as="geometry" />
        </mxCell>
        <mxCell id="6GXmeNR0ogsYIepqKpP2-70" style="edgeStyle=none;rounded=0;orthogonalLoop=1;jettySize=auto;html=1;entryX=0.5;entryY=0;entryDx=0;entryDy=0;" edge="1" source="6GXmeNR0ogsYIepqKpP2-72" target="6GXmeNR0ogsYIepqKpP2-76" parent="1">
          <mxGeometry relative="1" as="geometry" />
        </mxCell>
        <mxCell id="6GXmeNR0ogsYIepqKpP2-71" style="edgeStyle=none;rounded=0;orthogonalLoop=1;jettySize=auto;html=1;entryX=0.5;entryY=0;entryDx=0;entryDy=0;" edge="1" source="6GXmeNR0ogsYIepqKpP2-72" target="6GXmeNR0ogsYIepqKpP2-95" parent="1">
          <mxGeometry relative="1" as="geometry" />
        </mxCell>
        <mxCell id="6GXmeNR0ogsYIepqKpP2-72" value="Disco" style="swimlane;fontStyle=1;align=center;verticalAlign=top;childLayout=stackLayout;horizontal=1;startSize=26;horizontalStack=0;resizeParent=1;resizeParentMax=0;resizeLast=0;collapsible=1;marginBottom=0;whiteSpace=wrap;html=1;fillColor=#f0a30a;fontColor=#000000;strokeColor=#BD7000;" vertex="1" parent="1">
          <mxGeometry x="-1670" y="440" width="160" height="124" as="geometry" />
        </mxCell>
        <mxCell id="6GXmeNR0ogsYIepqKpP2-73" value="UnidadesVendidas (int)&lt;div&gt;Canciones (treeSet(Cancion))&lt;/div&gt;" style="text;strokeColor=none;fillColor=none;align=left;verticalAlign=top;spacingLeft=4;spacingRight=4;overflow=hidden;rotatable=0;points=[[0,0.5],[1,0.5]];portConstraint=eastwest;whiteSpace=wrap;html=1;" vertex="1" parent="6GXmeNR0ogsYIepqKpP2-72">
          <mxGeometry y="26" width="160" height="64" as="geometry" />
        </mxCell>
        <mxCell id="6GXmeNR0ogsYIepqKpP2-74" value="" style="line;strokeWidth=1;fillColor=none;align=left;verticalAlign=middle;spacingTop=-1;spacingLeft=3;spacingRight=3;rotatable=0;labelPosition=right;points=[];portConstraint=eastwest;strokeColor=inherit;" vertex="1" parent="6GXmeNR0ogsYIepqKpP2-72">
          <mxGeometry y="90" width="160" height="8" as="geometry" />
        </mxCell>
        <mxCell id="6GXmeNR0ogsYIepqKpP2-75" value="+ method(type): type" style="text;strokeColor=none;fillColor=none;align=left;verticalAlign=top;spacingLeft=4;spacingRight=4;overflow=hidden;rotatable=0;points=[[0,0.5],[1,0.5]];portConstraint=eastwest;whiteSpace=wrap;html=1;" vertex="1" parent="6GXmeNR0ogsYIepqKpP2-72">
          <mxGeometry y="98" width="160" height="26" as="geometry" />
        </mxCell>
        <mxCell id="6GXmeNR0ogsYIepqKpP2-76" value="Cancion" style="swimlane;fontStyle=1;align=center;verticalAlign=top;childLayout=stackLayout;horizontal=1;startSize=26;horizontalStack=0;resizeParent=1;resizeParentMax=0;resizeLast=0;collapsible=1;marginBottom=0;whiteSpace=wrap;html=1;fillColor=#a0522d;fontColor=#ffffff;strokeColor=#6D1F00;" vertex="1" parent="1">
          <mxGeometry x="-1750" y="640" width="160" height="164" as="geometry" />
        </mxCell>
        <mxCell id="6GXmeNR0ogsYIepqKpP2-77" value="Nombre (String[30])&lt;div&gt;Categoria (Int)&lt;/div&gt;&lt;div&gt;Reproducciones (Int)&lt;/div&gt;&lt;div&gt;Minutos (Int)&lt;/div&gt;&lt;div&gt;Segundos (Int)&lt;/div&gt;" style="text;strokeColor=none;fillColor=none;align=left;verticalAlign=top;spacingLeft=4;spacingRight=4;overflow=hidden;rotatable=0;points=[[0,0.5],[1,0.5]];portConstraint=eastwest;whiteSpace=wrap;html=1;" vertex="1" parent="6GXmeNR0ogsYIepqKpP2-76">
          <mxGeometry y="26" width="160" height="104" as="geometry" />
        </mxCell>
        <mxCell id="6GXmeNR0ogsYIepqKpP2-78" value="" style="line;strokeWidth=1;fillColor=none;align=left;verticalAlign=middle;spacingTop=-1;spacingLeft=3;spacingRight=3;rotatable=0;labelPosition=right;points=[];portConstraint=eastwest;strokeColor=inherit;" vertex="1" parent="6GXmeNR0ogsYIepqKpP2-76">
          <mxGeometry y="130" width="160" height="8" as="geometry" />
        </mxCell>
        <mxCell id="6GXmeNR0ogsYIepqKpP2-79" value="+ method(type): type" style="text;strokeColor=none;fillColor=none;align=left;verticalAlign=top;spacingLeft=4;spacingRight=4;overflow=hidden;rotatable=0;points=[[0,0.5],[1,0.5]];portConstraint=eastwest;whiteSpace=wrap;html=1;" vertex="1" parent="6GXmeNR0ogsYIepqKpP2-76">
          <mxGeometry y="138" width="160" height="26" as="geometry" />
        </mxCell>
        <mxCell id="6GXmeNR0ogsYIepqKpP2-80" value="Recital" style="swimlane;fontStyle=1;align=center;verticalAlign=top;childLayout=stackLayout;horizontal=1;startSize=26;horizontalStack=0;resizeParent=1;resizeParentMax=0;resizeLast=0;collapsible=1;marginBottom=0;whiteSpace=wrap;html=1;fillColor=#008a00;fontColor=#ffffff;strokeColor=#005700;" vertex="1" parent="1">
          <mxGeometry x="-1250" y="400" width="170" height="124" as="geometry" />
        </mxCell>
        <mxCell id="6GXmeNR0ogsYIepqKpP2-81" value="&lt;div&gt;Fecha (DateTime)&lt;/div&gt;&lt;div&gt;Recaudacion (Float)&lt;br&gt;&lt;div&gt;&lt;div&gt;Costo (Float)&lt;/div&gt;&lt;/div&gt;&lt;/div&gt;" style="text;strokeColor=none;fillColor=none;align=left;verticalAlign=top;spacingLeft=4;spacingRight=4;overflow=hidden;rotatable=0;points=[[0,0.5],[1,0.5]];portConstraint=eastwest;whiteSpace=wrap;html=1;" vertex="1" parent="6GXmeNR0ogsYIepqKpP2-80">
          <mxGeometry y="26" width="170" height="64" as="geometry" />
        </mxCell>
        <mxCell id="6GXmeNR0ogsYIepqKpP2-82" value="" style="line;strokeWidth=1;fillColor=none;align=left;verticalAlign=middle;spacingTop=-1;spacingLeft=3;spacingRight=3;rotatable=0;labelPosition=right;points=[];portConstraint=eastwest;strokeColor=inherit;" vertex="1" parent="6GXmeNR0ogsYIepqKpP2-80">
          <mxGeometry y="90" width="170" height="8" as="geometry" />
        </mxCell>
        <mxCell id="6GXmeNR0ogsYIepqKpP2-83" value="+ method(type): type" style="text;strokeColor=none;fillColor=none;align=left;verticalAlign=top;spacingLeft=4;spacingRight=4;overflow=hidden;rotatable=0;points=[[0,0.5],[1,0.5]];portConstraint=eastwest;whiteSpace=wrap;html=1;" vertex="1" parent="6GXmeNR0ogsYIepqKpP2-80">
          <mxGeometry y="98" width="170" height="26" as="geometry" />
        </mxCell>
        <mxCell id="6GXmeNR0ogsYIepqKpP2-84" style="edgeStyle=none;rounded=0;orthogonalLoop=1;jettySize=auto;html=1;entryX=0.5;entryY=0;entryDx=0;entryDy=0;" edge="1" source="6GXmeNR0ogsYIepqKpP2-86" target="6GXmeNR0ogsYIepqKpP2-91" parent="1">
          <mxGeometry relative="1" as="geometry" />
        </mxCell>
        <mxCell id="6GXmeNR0ogsYIepqKpP2-85" style="edgeStyle=none;rounded=0;orthogonalLoop=1;jettySize=auto;html=1;entryX=0.5;entryY=0;entryDx=0;entryDy=0;" edge="1" source="6GXmeNR0ogsYIepqKpP2-86" target="6GXmeNR0ogsYIepqKpP2-99" parent="1">
          <mxGeometry relative="1" as="geometry" />
        </mxCell>
        <mxCell id="6GXmeNR0ogsYIepqKpP2-86" value="Disco" style="swimlane;fontStyle=1;align=center;verticalAlign=top;childLayout=stackLayout;horizontal=1;startSize=26;horizontalStack=0;resizeParent=1;resizeParentMax=0;resizeLast=0;collapsible=1;marginBottom=0;whiteSpace=wrap;html=1;fillColor=#f0a30a;fontColor=#000000;strokeColor=#BD7000;" vertex="1" parent="1">
          <mxGeometry x="-1900" y="440" width="160" height="124" as="geometry" />
        </mxCell>
        <mxCell id="6GXmeNR0ogsYIepqKpP2-87" value="UnidadesVendidas (int)&lt;div&gt;Canciones (treeSet(Cancion))&lt;/div&gt;" style="text;strokeColor=none;fillColor=none;align=left;verticalAlign=top;spacingLeft=4;spacingRight=4;overflow=hidden;rotatable=0;points=[[0,0.5],[1,0.5]];portConstraint=eastwest;whiteSpace=wrap;html=1;" vertex="1" parent="6GXmeNR0ogsYIepqKpP2-86">
          <mxGeometry y="26" width="160" height="64" as="geometry" />
        </mxCell>
        <mxCell id="6GXmeNR0ogsYIepqKpP2-88" value="" style="line;strokeWidth=1;fillColor=none;align=left;verticalAlign=middle;spacingTop=-1;spacingLeft=3;spacingRight=3;rotatable=0;labelPosition=right;points=[];portConstraint=eastwest;strokeColor=inherit;" vertex="1" parent="6GXmeNR0ogsYIepqKpP2-86">
          <mxGeometry y="90" width="160" height="8" as="geometry" />
        </mxCell>
        <mxCell id="6GXmeNR0ogsYIepqKpP2-89" value="+ method(type): type" style="text;strokeColor=none;fillColor=none;align=left;verticalAlign=top;spacingLeft=4;spacingRight=4;overflow=hidden;rotatable=0;points=[[0,0.5],[1,0.5]];portConstraint=eastwest;whiteSpace=wrap;html=1;" vertex="1" parent="6GXmeNR0ogsYIepqKpP2-86">
          <mxGeometry y="98" width="160" height="26" as="geometry" />
        </mxCell>
        <mxCell id="6GXmeNR0ogsYIepqKpP2-90" style="edgeStyle=none;rounded=0;orthogonalLoop=1;jettySize=auto;html=1;entryX=0.5;entryY=0;entryDx=0;entryDy=0;" edge="1" source="6GXmeNR0ogsYIepqKpP2-67" target="6GXmeNR0ogsYIepqKpP2-86" parent="1">
          <mxGeometry relative="1" as="geometry" />
        </mxCell>
        <mxCell id="6GXmeNR0ogsYIepqKpP2-91" value="Cancion" style="swimlane;fontStyle=1;align=center;verticalAlign=top;childLayout=stackLayout;horizontal=1;startSize=26;horizontalStack=0;resizeParent=1;resizeParentMax=0;resizeLast=0;collapsible=1;marginBottom=0;whiteSpace=wrap;html=1;fillColor=#a0522d;fontColor=#ffffff;strokeColor=#6D1F00;" vertex="1" parent="1">
          <mxGeometry x="-2180" y="640" width="160" height="164" as="geometry" />
        </mxCell>
        <mxCell id="6GXmeNR0ogsYIepqKpP2-92" value="Nombre (String[30])&lt;div&gt;Categoria (Int)&lt;/div&gt;&lt;div&gt;Reproducciones (Int)&lt;/div&gt;&lt;div&gt;Minutos (Int)&lt;/div&gt;&lt;div&gt;Segundos (Int)&lt;/div&gt;" style="text;strokeColor=none;fillColor=none;align=left;verticalAlign=top;spacingLeft=4;spacingRight=4;overflow=hidden;rotatable=0;points=[[0,0.5],[1,0.5]];portConstraint=eastwest;whiteSpace=wrap;html=1;" vertex="1" parent="6GXmeNR0ogsYIepqKpP2-91">
          <mxGeometry y="26" width="160" height="104" as="geometry" />
        </mxCell>
        <mxCell id="6GXmeNR0ogsYIepqKpP2-93" value="" style="line;strokeWidth=1;fillColor=none;align=left;verticalAlign=middle;spacingTop=-1;spacingLeft=3;spacingRight=3;rotatable=0;labelPosition=right;points=[];portConstraint=eastwest;strokeColor=inherit;" vertex="1" parent="6GXmeNR0ogsYIepqKpP2-91">
          <mxGeometry y="130" width="160" height="8" as="geometry" />
        </mxCell>
        <mxCell id="6GXmeNR0ogsYIepqKpP2-94" value="+ method(type): type" style="text;strokeColor=none;fillColor=none;align=left;verticalAlign=top;spacingLeft=4;spacingRight=4;overflow=hidden;rotatable=0;points=[[0,0.5],[1,0.5]];portConstraint=eastwest;whiteSpace=wrap;html=1;" vertex="1" parent="6GXmeNR0ogsYIepqKpP2-91">
          <mxGeometry y="138" width="160" height="26" as="geometry" />
        </mxCell>
        <mxCell id="6GXmeNR0ogsYIepqKpP2-95" value="Cancion" style="swimlane;fontStyle=1;align=center;verticalAlign=top;childLayout=stackLayout;horizontal=1;startSize=26;horizontalStack=0;resizeParent=1;resizeParentMax=0;resizeLast=0;collapsible=1;marginBottom=0;whiteSpace=wrap;html=1;fillColor=#a0522d;fontColor=#ffffff;strokeColor=#6D1F00;" vertex="1" parent="1">
          <mxGeometry x="-1540" y="640" width="160" height="260" as="geometry" />
        </mxCell>
        <mxCell id="6GXmeNR0ogsYIepqKpP2-96" value="Nombre (String[30])&lt;div&gt;Categoria (Int)&lt;/div&gt;&lt;div&gt;Reproducciones (Int)&lt;/div&gt;&lt;div&gt;Minutos (Int)&lt;/div&gt;&lt;div&gt;Segundos (Int)&lt;/div&gt;" style="text;strokeColor=none;fillColor=none;align=left;verticalAlign=top;spacingLeft=4;spacingRight=4;overflow=hidden;rotatable=0;points=[[0,0.5],[1,0.5]];portConstraint=eastwest;whiteSpace=wrap;html=1;" vertex="1" parent="6GXmeNR0ogsYIepqKpP2-95">
          <mxGeometry y="26" width="160" height="104" as="geometry" />
        </mxCell>
        <mxCell id="6GXmeNR0ogsYIepqKpP2-97" value="" style="line;strokeWidth=1;fillColor=none;align=left;verticalAlign=middle;spacingTop=-1;spacingLeft=3;spacingRight=3;rotatable=0;labelPosition=right;points=[];portConstraint=eastwest;strokeColor=inherit;" vertex="1" parent="6GXmeNR0ogsYIepqKpP2-95">
          <mxGeometry y="130" width="160" height="8" as="geometry" />
        </mxCell>
        <mxCell id="6GXmeNR0ogsYIepqKpP2-98" value="&lt;div&gt;Cancion()&lt;/div&gt;&lt;div&gt;void Duracion()&lt;/div&gt;&lt;div&gt;int esSencillo()&lt;/div&gt;&lt;div&gt;int getReproducciones()&lt;/div&gt;&lt;div&gt;void toString()&lt;/div&gt;" style="text;strokeColor=none;fillColor=none;align=left;verticalAlign=top;spacingLeft=4;spacingRight=4;overflow=hidden;rotatable=0;points=[[0,0.5],[1,0.5]];portConstraint=eastwest;whiteSpace=wrap;html=1;" vertex="1" parent="6GXmeNR0ogsYIepqKpP2-95">
          <mxGeometry y="138" width="160" height="122" as="geometry" />
        </mxCell>
        <mxCell id="6GXmeNR0ogsYIepqKpP2-99" value="Cancion" style="swimlane;fontStyle=1;align=center;verticalAlign=top;childLayout=stackLayout;horizontal=1;startSize=26;horizontalStack=0;resizeParent=1;resizeParentMax=0;resizeLast=0;collapsible=1;marginBottom=0;whiteSpace=wrap;html=1;fillColor=#a0522d;fontColor=#ffffff;strokeColor=#6D1F00;" vertex="1" parent="1">
          <mxGeometry x="-1980" y="640" width="160" height="164" as="geometry" />
        </mxCell>
        <mxCell id="6GXmeNR0ogsYIepqKpP2-100" value="Nombre (String[30])&lt;div&gt;Categoria (Int)&lt;/div&gt;&lt;div&gt;Reproducciones (Int)&lt;/div&gt;&lt;div&gt;Minutos (Int)&lt;/div&gt;&lt;div&gt;Segundos (Int)&lt;/div&gt;" style="text;strokeColor=none;fillColor=none;align=left;verticalAlign=top;spacingLeft=4;spacingRight=4;overflow=hidden;rotatable=0;points=[[0,0.5],[1,0.5]];portConstraint=eastwest;whiteSpace=wrap;html=1;" vertex="1" parent="6GXmeNR0ogsYIepqKpP2-99">
          <mxGeometry y="26" width="160" height="104" as="geometry" />
        </mxCell>
        <mxCell id="6GXmeNR0ogsYIepqKpP2-101" value="" style="line;strokeWidth=1;fillColor=none;align=left;verticalAlign=middle;spacingTop=-1;spacingLeft=3;spacingRight=3;rotatable=0;labelPosition=right;points=[];portConstraint=eastwest;strokeColor=inherit;" vertex="1" parent="6GXmeNR0ogsYIepqKpP2-99">
          <mxGeometry y="130" width="160" height="8" as="geometry" />
        </mxCell>
        <mxCell id="6GXmeNR0ogsYIepqKpP2-102" value="+ method(type): type" style="text;strokeColor=none;fillColor=none;align=left;verticalAlign=top;spacingLeft=4;spacingRight=4;overflow=hidden;rotatable=0;points=[[0,0.5],[1,0.5]];portConstraint=eastwest;whiteSpace=wrap;html=1;" vertex="1" parent="6GXmeNR0ogsYIepqKpP2-99">
          <mxGeometry y="138" width="160" height="26" as="geometry" />
        </mxCell>
        <mxCell id="6GXmeNR0ogsYIepqKpP2-103" value="Recital" style="swimlane;fontStyle=1;align=center;verticalAlign=top;childLayout=stackLayout;horizontal=1;startSize=26;horizontalStack=0;resizeParent=1;resizeParentMax=0;resizeLast=0;collapsible=1;marginBottom=0;whiteSpace=wrap;html=1;fillColor=#008a00;fontColor=#ffffff;strokeColor=#005700;" vertex="1" parent="1">
          <mxGeometry x="-1250" y="230" width="170" height="124" as="geometry" />
        </mxCell>
        <mxCell id="6GXmeNR0ogsYIepqKpP2-104" value="&lt;div&gt;Fecha (DateTime)&lt;/div&gt;&lt;div&gt;Recaudacion (Float)&lt;br&gt;&lt;div&gt;&lt;div&gt;Costo (Float)&lt;/div&gt;&lt;/div&gt;&lt;/div&gt;" style="text;strokeColor=none;fillColor=none;align=left;verticalAlign=top;spacingLeft=4;spacingRight=4;overflow=hidden;rotatable=0;points=[[0,0.5],[1,0.5]];portConstraint=eastwest;whiteSpace=wrap;html=1;" vertex="1" parent="6GXmeNR0ogsYIepqKpP2-103">
          <mxGeometry y="26" width="170" height="64" as="geometry" />
        </mxCell>
        <mxCell id="6GXmeNR0ogsYIepqKpP2-105" value="" style="line;strokeWidth=1;fillColor=none;align=left;verticalAlign=middle;spacingTop=-1;spacingLeft=3;spacingRight=3;rotatable=0;labelPosition=right;points=[];portConstraint=eastwest;strokeColor=inherit;" vertex="1" parent="6GXmeNR0ogsYIepqKpP2-103">
          <mxGeometry y="90" width="170" height="8" as="geometry" />
        </mxCell>
        <mxCell id="6GXmeNR0ogsYIepqKpP2-106" value="+ method(type): type" style="text;strokeColor=none;fillColor=none;align=left;verticalAlign=top;spacingLeft=4;spacingRight=4;overflow=hidden;rotatable=0;points=[[0,0.5],[1,0.5]];portConstraint=eastwest;whiteSpace=wrap;html=1;" vertex="1" parent="6GXmeNR0ogsYIepqKpP2-103">
          <mxGeometry y="98" width="170" height="26" as="geometry" />
        </mxCell>
        <mxCell id="6GXmeNR0ogsYIepqKpP2-107" style="edgeStyle=none;rounded=0;orthogonalLoop=1;jettySize=auto;html=1;entryX=0;entryY=0.5;entryDx=0;entryDy=0;" edge="1" source="6GXmeNR0ogsYIepqKpP2-67" target="6GXmeNR0ogsYIepqKpP2-104" parent="1">
          <mxGeometry relative="1" as="geometry" />
        </mxCell>
      </root>
    </mxGraphModel>
  </diagram>
</mxfile>
